<?xml version="1.0" standalone="no"?>
<!DOCTYPE svg PUBLIC "-//W3C//DTD SVG 1.1//EN" "http://www.w3.org/Graphics/SVG/1.1/DTD/svg11.dtd" >
<svg>
<metadata>
Created by FontForge 20090622 at Mon Mar 14 04:48:08 2016
 By ffonts
Copyright (c) 2016 by Tiago Amora e Eduardo Novais. All rights reserved.
</metadata>
<defs>
<font id="Spaceport" horiz-adv-x="735" >
  <font-face 
    font-family="Spaceport 2006"
    font-weight="400"
    font-stretch="expanded"
    units-per-em="1000"
    panose-1="0 0 0 0 0 0 0 0 0 0"
    ascent="812"
    descent="-188"
    x-height="625"
    cap-height="750"
    bbox="40 -187 935 812"
    underline-thickness="50"
    underline-position="-50"
    stemh="115"
    stemv="125"
    unicode-range="U+000D-U+007A"
  />
<missing-glyph horiz-adv-x="494" 
 />
    <glyph glyph-name=".notdef" horiz-adv-x="494" 
 />
    <glyph glyph-name="a" unicode="a" 
d="M50 125v125l125 125h375v72l-62 63h-375v115h406l156 -156v-469h-500zM144 198l62 -83h344v145h-344z" />
    <glyph glyph-name="b" unicode="b" 
d="M60 812h125v-197h344l156 -156v-303l-156 -156h-469v812zM185 500v-385h312l63 63v259l-63 63h-312z" />
    <glyph glyph-name="c" unicode="c" 
d="M50 469l156 156h407l62 -62v-178h-115v94l-31 31h-291l-63 -63v-269l63 -63h437v-115h-469l-156 156v313z" />
    <glyph glyph-name="d" unicode="d" 
d="M675 812v-812h-469l-156 156v313l156 156h344v187h125zM550 117v393h-313l-62 -63v-267l62 -63h313z" />
    <glyph glyph-name="e" unicode="e" horiz-adv-x="725" 
d="M50 156v313l156 156h344l125 -125v-188l-62 -62h-438v-72l63 -63h375v-115h-407zM175 447v-82h375v82l-63 63h-249z" />
    <glyph glyph-name="f" unicode="f" horiz-adv-x="600" 
d="M60 0v687l125 125h302l73 -72v-177h-115v103l-31 31h-167l-62 -62v-208h188v-115h-188v-312h-125z" />
    <glyph glyph-name="g" unicode="g" 
d="M50 469l156 156h469v-656l-156 -156h-406v124h375l62 63v72h-344l-156 157v240zM237 510l-62 -63v-197l62 -62h313v322h-313z" />
    <glyph glyph-name="h" unicode="h" horiz-adv-x="745" 
d="M60 0v812h125v-197h344l156 -156v-459h-125v437l-62 63h-313v-500h-125z" />
    <glyph glyph-name="i" unicode="i" horiz-adv-x="245" 
d="M60 635h125v-635h-125v635zM60 812h125v-115h-125v115z" />
    <glyph glyph-name="j" unicode="j" horiz-adv-x="600" 
d="M540 635h-125v-432v-15v-196l-62 -63h-167l-31 32v101h-115v-187l62 -62h313l125 124v698zM415 812h125v-115h-125v115z" />
    <glyph glyph-name="k" unicode="k" horiz-adv-x="725" 
d="M60 0v812h125v-460l385 273h115v-52l-369 -268l369 -244v-61h-116l-347 236l-37 -27v-209h-125z" />
    <glyph glyph-name="l" unicode="l" horiz-adv-x="350" 
d="M290 0h-125v666l-31 31h-94v115h187l63 -62v-750z" />
    <glyph glyph-name="m" unicode="m" horiz-adv-x="995" 
d="M60 0v625h344l93 -94l94 94h188l156 -156v-469h-125v448l-62 62h-126l-62 -62v-448h-125v447l-62 63h-188v-510h-125z" />
    <glyph glyph-name="n" unicode="n" horiz-adv-x="745" 
d="M60 625h469l156 -156v-469h-125v447l-62 63h-313v-510h-125v625z" />
    <glyph glyph-name="o" unicode="o" horiz-adv-x="725" 
d="M50 469l156 156h313l156 -156v-313l-156 -156h-313l-156 156v313zM238 510l-63 -63v-269l63 -63h249l63 63v269l-63 63h-249z" />
    <glyph glyph-name="p" unicode="p" horiz-adv-x="745" 
d="M60 625h469l156 -156v-313l-156 -156h-344v-187h-125v812zM185 510v-395h312l63 63v269l-63 63h-312z" />
    <glyph glyph-name="q" unicode="q" 
d="M50 469l156 156h469v-812h-125v187h-344l-156 156v313zM238 510l-63 -63v-269l63 -63h312v395h-312z" />
    <glyph glyph-name="r" unicode="r" horiz-adv-x="610" 
d="M60 0v625h437l63 -62v-188h-122v104l-31 31h-222v-510h-125z" />
    <glyph glyph-name="s" unicode="s" horiz-adv-x="745" 
d="M60 500l125 125h500v-115h-469l-62 -73l62 -72h344l125 -115v-125l-125 -125h-500v115h469l62 73l-62 62h-344l-125 125v125z" />
    <glyph glyph-name="t" unicode="t" horiz-adv-x="495" 
d="M60 625h125v125h125v-125h125v-114h-125v-365l31 -31h91v-115h-185l-62 62v449h-125v114z" />
    <glyph glyph-name="u" unicode="u" horiz-adv-x="745" 
d="M60 625h125v-447l62 -63h313v510h125v-625h-469l-156 156v469z" />
    <glyph glyph-name="v" unicode="v" horiz-adv-x="725" 
d="M50 625h125v-357l159 -157h57l159 157v357h125v-375l-250 -250h-125l-250 250v375z" />
    <glyph glyph-name="w" unicode="w" horiz-adv-x="995" 
d="M60 625h125v-447l63 -63h124l63 63v447h125v-447l63 -63h124l63 63v447h125v-469l-156 -156h-188l-94 94l-93 -94h-188l-156 156v469z" />
    <glyph glyph-name="x" unicode="x" horiz-adv-x="705" 
d="M40 625h125l186 -226l189 226h125v-52l-229 -261l229 -260v-52h-125l-188 224l-187 -224h-125v52l226 261l-226 260v52z" />
    <glyph glyph-name="y" unicode="y" horiz-adv-x="720" 
d="M45 625h125l1 -226l161 -169h53l160 166v229h125v-250l-500 -562h-119v68l220 249l-226 245v250z" />
    <glyph glyph-name="z" unicode="z" horiz-adv-x="725" 
d="M50 625h625v-115l-406 -395h406v-115h-625v115l437 395h-437v115z" />
    <glyph glyph-name="B" unicode="B" horiz-adv-x="860" 
d="M60 750h625l125 -125v-125l-125 -125l125 -125v-125l-125 -125h-625v750zM185 649v-212h438l62 73v77l-62 62h-438zM185 322v-197h438l62 73v62l-62 62h-438z" />
    <glyph glyph-name="C" unicode="C" horiz-adv-x="850" 
d="M800 115v-115h-625l-125 125v500l125 125h625v-115h-563l-62 -62v-395l62 -63h563z" />
    <glyph glyph-name="D" unicode="D" horiz-adv-x="860" 
d="M60 750h625l125 -125v-500l-125 -125h-625v750zM185 635v-520h437l63 63v395l-63 62h-437z" />
    <glyph glyph-name="E" unicode="E" horiz-adv-x="860" 
d="M60 750h750v-115h-625v-208h500v-115h-500v-197h625v-115h-750v750z" />
    <glyph glyph-name="F" unicode="F" horiz-adv-x="860" 
d="M60 750h750v-115h-625v-208h500v-115h-500v-312h-125v750z" />
    <glyph glyph-name="G" unicode="G" horiz-adv-x="860" 
d="M50 625l125 125h625v-115h-562l-63 -62v-395l63 -63h375l62 63v144h-313v115h438v-312l-125 -125h-500l-125 125v500z" />
    <glyph glyph-name="H" unicode="H" horiz-adv-x="870" 
d="M60 750h125v-323h500v323h125v-750h-125v312h-500v-312h-125v750z" />
    <glyph glyph-name="I" unicode="I" horiz-adv-x="245" 
d="M60 750h125v-750h-125v750z" />
    <glyph glyph-name="J" unicode="J" 
d="M50 250h125v-72l62 -63h251l62 63v572h125v-625l-125 -125h-375l-125 125v125z" />
    <glyph glyph-name="K" unicode="K" horiz-adv-x="870" 
d="M60 0v750h125v-363l468 363h157l-503 -402l503 -348h-177l-407 283l-41 -33v-250h-125z" />
    <glyph glyph-name="L" unicode="L" 
d="M60 750h125v-637h500v-113h-625v750z" />
    <glyph glyph-name="M" unicode="M" horiz-adv-x="995" 
d="M60 750h125l313 -354l312 354h125v-750h-125v551l-260 -291h-105l-260 291v-551h-125v750z" />
    <glyph glyph-name="N" unicode="N" horiz-adv-x="870" 
d="M60 750h125l500 -541v541h125v-750h-125l-500 541v-541h-125v750z" />
    <glyph glyph-name="O" unicode="O" horiz-adv-x="850" 
d="M800 625v-500l-125 -125h-500l-125 125v500l125 125h500zM675 178v395l-62 62h-375l-63 -62v-395l63 -63h375z" />
    <glyph glyph-name="P" unicode="P" horiz-adv-x="860" 
d="M60 750h625l125 -125v-250l-125 -125h-500v-250h-125v750zM185 632v-267h437l63 62v143l-63 62h-437z" />
    <glyph glyph-name="Q" unicode="Q" horiz-adv-x="850" 
d="M800 625v-500l-125 -125h-188v-48h-124v48h-188l-125 125v500l125 125h500zM675 178v395l-63 62h-375l-62 -62v-395l62 -63h126v135h124v-135h125z" />
    <glyph glyph-name="R" unicode="R" horiz-adv-x="870" 
d="M60 750h625l125 -125v-250l-125 -125h-53l188 -250h-135l-188 250h-312v-250h-125v750zM185 635v-270h437l63 62v146l-63 62h-437z" />
    <glyph glyph-name="S" unicode="S" horiz-adv-x="850" 
d="M800 302v-177l-125 -125h-625v115h562l63 63v72l-63 62h-437l-125 125v188l125 125h625v-115h-563l-62 -62v-83l62 -63h438z" />
    <glyph glyph-name="T" unicode="T" horiz-adv-x="850" 
d="M50 750h750v-112h-313v-638h-125v638h-312v112z" />
    <glyph glyph-name="U" unicode="U" horiz-adv-x="870" 
d="M60 750h125v-575l62 -63h375l63 63v575h125v-625l-125 -125h-500l-125 125v625z" />
    <glyph glyph-name="V" unicode="V" horiz-adv-x="850" 
d="M50 750h125v-229l250 -406l250 406v229h125v-250l-313 -500h-125l-312 500v250z" />
    <glyph glyph-name="W" unicode="W" horiz-adv-x="995" 
d="M60 750h125v-438l125 -168l187 168l188 -168l125 168v438h125v-500l-188 -250h-124l-126 125l-125 -125h-124l-188 250v500z" />
    <glyph glyph-name="X" unicode="X" horiz-adv-x="850" 
d="M198 0h-148l301 375l-301 375h148l227 -283l227 283h148l-301 -375l301 -375h-148l-227 283z" />
    <glyph glyph-name="Y" unicode="Y" horiz-adv-x="850" 
d="M50 750h125v-197l250 -198l250 198v197h125v-250l-312 -250v-250h-126v250l-312 250v250z" />
    <glyph glyph-name="Z" unicode="Z" horiz-adv-x="850" 
d="M50 750h750v-115l-563 -520h563v-115h-750v115l562 520h-562v115z" />
    <glyph glyph-name="zero" unicode="0" 
d="M56 625l125 125h374l125 -125v-500l-125 -125h-375l-125 125zM492 113l63 63v377l-300 -440h237zM243 637l-63 -62v-372l293 434h-230z" />
    <glyph glyph-name="one" unicode="1" horiz-adv-x="360" 
d="M50 750h250v-750h-125v573l-63 62h-62v115z" />
    <glyph glyph-name="two" unicode="2" horiz-adv-x="745" 
d="M60 500v125l125 125h375l125 -125v-250l-125 -125h-313l-62 -62v-73h500v-115h-625v240l125 125h313l62 62v146l-62 62h-251l-62 -62v-73h-125z" />
    <glyph glyph-name="three" unicode="3" horiz-adv-x="745" 
d="M60 750h500l125 -125v-188l-63 -62l63 -63v-187l-125 -125h-500v115h437l63 63v78l-63 62h-312v113h312l63 63v79l-63 62h-437v115z" />
    <glyph glyph-name="four" unicode="4" 
d="M60 563l188 187h312v-385h125v-115h-125v-250h-125v250h-375v313zM185 365h250v270h-125l-125 -125v-145z" />
    <glyph glyph-name="five" unicode="5" horiz-adv-x="745" 
d="M60 750h625v-115h-500v-208h375l125 -125v-177l-125 -125h-500v115h438l62 63v72l-62 62h-438v438z" />
    <glyph glyph-name="six" unicode="6" 
d="M60 625l125 125h437v-115h-375l-62 -62v-146h375l125 -125v-177l-125 -125h-375l-125 125v500zM497 312h-312v-134l62 -63h250l63 63v72z" />
    <glyph glyph-name="seven" unicode="7" horiz-adv-x="725" 
d="M50 750h625v-115l-375 -635h-156l375 635h-469v115z" />
    <glyph glyph-name="eight" unicode="8" horiz-adv-x="725" 
d="M50 625l125 125h375l125 -125v-125l-115 -125l115 -125v-125l-125 -125h-375l-125 125v125l115 125l-115 125v125zM237 645l-62 -62v-83l62 -63h251l62 63v83l-62 62h-251zM488 312h-251l-62 -62v-72l62 -63h251l62 63v72z" />
    <glyph glyph-name="nine" unicode="9" 
d="M50 625l125 125h375l125 -125v-500l-125 -125h-438v115h375l63 63v128h-375l-125 125v194zM237 635l-62 -62v-86l62 -63h313v149l-63 62h-250z" />
    <glyph glyph-name="space" unicode=" " horiz-adv-x="494" 
 />
    <glyph glyph-name="hyphen" unicode="-" horiz-adv-x="725" 
d="M50 250v115h625v-115h-625z" />
    <glyph glyph-name="period" unicode="." horiz-adv-x="245" 
d="M60 125h125v-125h-125v125z" />
    <glyph glyph-name="NULL" horiz-adv-x="0" 
 />
    <glyph glyph-name="NULL" horiz-adv-x="0" 
 />
    <glyph glyph-name="CR" unicode="&#xd;" horiz-adv-x="494" 
 />
    <glyph glyph-name="A" unicode="A" horiz-adv-x="850" 
d="M800 0h-125v198h-500v-198h-125v250l313 500h124l313 -500v-250zM237 312h375l-187 323z" />
    </font>
</defs>
</svg>
